<?xml version="1.0" encoding="UTF-8" standalone="no"?>
<!DOCTYPE svg PUBLIC "-//W3C//DTD SVG 1.1//EN"
 "http://www.w3.org/Graphics/SVG/1.1/DTD/svg11.dtd">
<!-- Generated by graphviz version 2.40.1 (20161225.0304)
 -->
<!-- Title: UmlClassDiagram Pages: 1 -->
<svg width="929pt" height="1140pt"
 viewBox="0.00 0.00 928.85 1140.00" xmlns="http://www.w3.org/2000/svg" xmlns:xlink="http://www.w3.org/1999/xlink">
<g id="graph0" class="graph" transform="scale(1 1) rotate(0) translate(4 1136)">
<title>UmlClassDiagram</title>
<polygon fill="#ffffff" stroke="transparent" points="-4,4 -4,-1136 924.8506,-1136 924.8506,4 -4,4"/>
<!-- 1 -->
<g id="node1" class="node">
<title>1</title>
<polygon fill="#f2f2f2" stroke="#000000" points="622.7959,-676.9 622.7959,-986.5 711.8955,-986.5 711.8955,-676.9 622.7959,-676.9"/>
<text text-anchor="middle" x="667.3457" y="-969.9" font-family="Times,serif" font-size="14.00" fill="#000000">DSMath</text>
<polyline fill="none" stroke="#000000" points="622.7959,-961.7 711.8955,-961.7 "/>
<text text-anchor="start" x="630.7959" y="-945.1" font-family="Times,serif" font-size="14.00" fill="#000000">Public:</text>
<text text-anchor="start" x="630.7959" y="-928.3" font-family="Times,serif" font-size="14.00" fill="#000000"> &#160;&#160;WAD: uint</text>
<text text-anchor="start" x="630.7959" y="-911.5" font-family="Times,serif" font-size="14.00" fill="#000000"> &#160;&#160;RAY: uint</text>
<polyline fill="none" stroke="#000000" points="622.7959,-903.3 711.8955,-903.3 "/>
<text text-anchor="start" x="630.7959" y="-886.7" font-family="Times,serif" font-size="14.00" fill="#000000">Internal:</text>
<text text-anchor="start" x="630.7959" y="-869.9" font-family="Times,serif" font-size="14.00" fill="#000000"> &#160;&#160;&#160;imax()</text>
<text text-anchor="start" x="630.7959" y="-853.1" font-family="Times,serif" font-size="14.00" fill="#000000"> &#160;&#160;&#160;add()</text>
<text text-anchor="start" x="630.7959" y="-836.3" font-family="Times,serif" font-size="14.00" fill="#000000"> &#160;&#160;&#160;mul()</text>
<text text-anchor="start" x="630.7959" y="-819.5" font-family="Times,serif" font-size="14.00" fill="#000000"> &#160;&#160;&#160;min()</text>
<text text-anchor="start" x="630.7959" y="-802.7" font-family="Times,serif" font-size="14.00" fill="#000000"> &#160;&#160;&#160;max()</text>
<text text-anchor="start" x="630.7959" y="-785.9" font-family="Times,serif" font-size="14.00" fill="#000000"> &#160;&#160;&#160;imin()</text>
<text text-anchor="start" x="630.7959" y="-769.1" font-family="Times,serif" font-size="14.00" fill="#000000"> &#160;&#160;&#160;sub()</text>
<text text-anchor="start" x="630.7959" y="-752.3" font-family="Times,serif" font-size="14.00" fill="#000000"> &#160;&#160;&#160;wmul()</text>
<text text-anchor="start" x="630.7959" y="-735.5" font-family="Times,serif" font-size="14.00" fill="#000000"> &#160;&#160;&#160;rmul()</text>
<text text-anchor="start" x="630.7959" y="-718.7" font-family="Times,serif" font-size="14.00" fill="#000000"> &#160;&#160;&#160;wdiv()</text>
<text text-anchor="start" x="630.7959" y="-701.9" font-family="Times,serif" font-size="14.00" fill="#000000"> &#160;&#160;&#160;rdiv()</text>
<text text-anchor="start" x="630.7959" y="-685.1" font-family="Times,serif" font-size="14.00" fill="#000000"> &#160;&#160;&#160;rpow()</text>
</g>
<!-- 2 -->
<g id="node2" class="node">
<title>2</title>
<polygon fill="#f2f2f2" stroke="#000000" points="0,-1023.5 0,-1131.5 160.6914,-1131.5 160.6914,-1023.5 0,-1023.5"/>
<text text-anchor="middle" x="80.3457" y="-1114.9" font-family="Times,serif" font-size="14.00" fill="#000000">&lt;&lt;Abstract&gt;&gt;</text>
<text text-anchor="middle" x="80.3457" y="-1098.1" font-family="Times,serif" font-size="14.00" fill="#000000">DSAuthority</text>
<polyline fill="none" stroke="#000000" points="0,-1089.9 160.6914,-1089.9 "/>
<text text-anchor="middle" x="80.3457" y="-1073.3" font-family="Times,serif" font-size="14.00" fill="#000000"> </text>
<polyline fill="none" stroke="#000000" points="0,-1065.1 160.6914,-1065.1 "/>
<text text-anchor="start" x="8" y="-1048.5" font-family="Times,serif" font-size="14.00" fill="#000000">Public:</text>
<text text-anchor="start" x="8" y="-1031.7" font-family="Times,serif" font-size="14.00" fill="#000000"> &#160;&#160;&#160;&lt;&lt;abstract&gt;&gt; canCall()</text>
</g>
<!-- 3 -->
<g id="node3" class="node">
<title>3</title>
<polygon fill="#f2f2f2" stroke="#000000" points="178.5463,-1023.5 178.5463,-1131.5 378.1451,-1131.5 378.1451,-1023.5 178.5463,-1023.5"/>
<text text-anchor="middle" x="278.3457" y="-1114.9" font-family="Times,serif" font-size="14.00" fill="#000000">DSAuthEvents</text>
<polyline fill="none" stroke="#000000" points="178.5463,-1106.7 378.1451,-1106.7 "/>
<text text-anchor="middle" x="278.3457" y="-1090.1" font-family="Times,serif" font-size="14.00" fill="#000000"> </text>
<polyline fill="none" stroke="#000000" points="178.5463,-1081.9 378.1451,-1081.9 "/>
<text text-anchor="start" x="186.5463" y="-1065.3" font-family="Times,serif" font-size="14.00" fill="#000000">Public:</text>
<text text-anchor="start" x="186.5463" y="-1048.5" font-family="Times,serif" font-size="14.00" fill="#000000"> &#160;&#160;&#160;&lt;&lt;event&gt;&gt; LogSetAuthority()</text>
<text text-anchor="start" x="186.5463" y="-1031.7" font-family="Times,serif" font-size="14.00" fill="#000000"> &#160;&#160;&#160;&lt;&lt;event&gt;&gt; LogSetOwner()</text>
</g>
<!-- 4 -->
<g id="node4" class="node">
<title>4</title>
<polygon fill="#f2f2f2" stroke="#000000" points="199.9628,-727.3 199.9628,-936.1 356.7286,-936.1 356.7286,-727.3 199.9628,-727.3"/>
<text text-anchor="middle" x="278.3457" y="-919.5" font-family="Times,serif" font-size="14.00" fill="#000000">DSAuth</text>
<polyline fill="none" stroke="#000000" points="199.9628,-911.3 356.7286,-911.3 "/>
<text text-anchor="start" x="207.9628" y="-894.7" font-family="Times,serif" font-size="14.00" fill="#000000">Public:</text>
<text text-anchor="start" x="207.9628" y="-877.9" font-family="Times,serif" font-size="14.00" fill="#000000"> &#160;&#160;authority: DSAuthority</text>
<text text-anchor="start" x="207.9628" y="-861.1" font-family="Times,serif" font-size="14.00" fill="#000000"> &#160;&#160;owner: address</text>
<polyline fill="none" stroke="#000000" points="199.9628,-852.9 356.7286,-852.9 "/>
<text text-anchor="start" x="207.9628" y="-836.3" font-family="Times,serif" font-size="14.00" fill="#000000">Internal:</text>
<text text-anchor="start" x="207.9628" y="-819.5" font-family="Times,serif" font-size="14.00" fill="#000000"> &#160;&#160;&#160;isAuthorized()</text>
<text text-anchor="start" x="207.9628" y="-802.7" font-family="Times,serif" font-size="14.00" fill="#000000">Public:</text>
<text text-anchor="start" x="207.9628" y="-785.9" font-family="Times,serif" font-size="14.00" fill="#000000"> &#160;&#160;&#160;&lt;&lt;modifier&gt;&gt; auth()</text>
<text text-anchor="start" x="207.9628" y="-769.1" font-family="Times,serif" font-size="14.00" fill="#000000"> &#160;&#160;&#160;constructor()</text>
<text text-anchor="start" x="207.9628" y="-752.3" font-family="Times,serif" font-size="14.00" fill="#000000"> &#160;&#160;&#160;setOwner()</text>
<text text-anchor="start" x="207.9628" y="-735.5" font-family="Times,serif" font-size="14.00" fill="#000000"> &#160;&#160;&#160;setAuthority()</text>
</g>
<!-- 4&#45;&gt;2 -->
<g id="edge2" class="edge">
<title>4&#45;&gt;2</title>
<path fill="none" stroke="#000000" d="M199.8065,-929.1997C176.421,-958.2308 151.4427,-989.2392 130.4043,-1015.3565"/>
<polygon fill="#000000" stroke="#000000" points="127.5553,-1013.314 124.0078,-1023.2973 133.0067,-1017.7053 127.5553,-1013.314"/>
</g>
<!-- 4&#45;&gt;3 -->
<g id="edge1" class="edge">
<title>4&#45;&gt;3</title>
<path fill="none" stroke="#000000" d="M278.3457,-936.2977C278.3457,-955.233 278.3457,-974.7611 278.3457,-993.0296"/>
<polygon fill="none" stroke="#000000" points="267.8458,-993.1961 278.3457,-1023.1961 288.8458,-993.1962 267.8458,-993.1961"/>
</g>
<!-- 5 -->
<g id="node5" class="node">
<title>5</title>
<polygon fill="#f2f2f2" stroke="#000000" points="375.1038,-777.7 375.1038,-885.7 529.5876,-885.7 529.5876,-777.7 375.1038,-777.7"/>
<text text-anchor="middle" x="452.3457" y="-869.1" font-family="Times,serif" font-size="14.00" fill="#000000">DSNote</text>
<polyline fill="none" stroke="#000000" points="375.1038,-860.9 529.5876,-860.9 "/>
<text text-anchor="middle" x="452.3457" y="-844.3" font-family="Times,serif" font-size="14.00" fill="#000000"> </text>
<polyline fill="none" stroke="#000000" points="375.1038,-836.1 529.5876,-836.1 "/>
<text text-anchor="start" x="383.1038" y="-819.5" font-family="Times,serif" font-size="14.00" fill="#000000">Public:</text>
<text text-anchor="start" x="383.1038" y="-802.7" font-family="Times,serif" font-size="14.00" fill="#000000"> &#160;&#160;&#160;&lt;&lt;event&gt;&gt; LogNote()</text>
<text text-anchor="start" x="383.1038" y="-785.9" font-family="Times,serif" font-size="14.00" fill="#000000"> &#160;&#160;&#160;&lt;&lt;modifier&gt;&gt; note()</text>
</g>
<!-- 6 -->
<g id="node6" class="node">
<title>6</title>
<polygon fill="#f2f2f2" stroke="#000000" points="288.2146,-447.9 288.2146,-589.5 464.4768,-589.5 464.4768,-447.9 288.2146,-447.9"/>
<text text-anchor="middle" x="376.3457" y="-572.9" font-family="Times,serif" font-size="14.00" fill="#000000">DSStop</text>
<polyline fill="none" stroke="#000000" points="288.2146,-564.7 464.4768,-564.7 "/>
<text text-anchor="start" x="296.2146" y="-548.1" font-family="Times,serif" font-size="14.00" fill="#000000">Public:</text>
<text text-anchor="start" x="296.2146" y="-531.3" font-family="Times,serif" font-size="14.00" fill="#000000"> &#160;&#160;stopped: bool</text>
<polyline fill="none" stroke="#000000" points="288.2146,-523.1 464.4768,-523.1 "/>
<text text-anchor="start" x="296.2146" y="-506.5" font-family="Times,serif" font-size="14.00" fill="#000000">Public:</text>
<text text-anchor="start" x="296.2146" y="-489.7" font-family="Times,serif" font-size="14.00" fill="#000000"> &#160;&#160;&#160;&lt;&lt;modifier&gt;&gt; stoppable()</text>
<text text-anchor="start" x="296.2146" y="-472.9" font-family="Times,serif" font-size="14.00" fill="#000000"> &#160;&#160;&#160;stop()</text>
<text text-anchor="start" x="296.2146" y="-456.1" font-family="Times,serif" font-size="14.00" fill="#000000"> &#160;&#160;&#160;start()</text>
</g>
<!-- 6&#45;&gt;4 -->
<g id="edge4" class="edge">
<title>6&#45;&gt;4</title>
<path fill="none" stroke="#000000" d="M354.108,-589.7245C344.0322,-621.9053 331.7786,-661.0417 320.0886,-698.3782"/>
<polygon fill="none" stroke="#000000" points="310.04,-695.3313 311.0964,-727.0982 330.0807,-701.606 310.04,-695.3313"/>
</g>
<!-- 6&#45;&gt;5 -->
<g id="edge3" class="edge">
<title>6&#45;&gt;5</title>
<path fill="none" stroke="#000000" d="M393.5913,-589.7245C405.0249,-636.8131 420.0747,-698.7944 432.0801,-748.2376"/>
<polygon fill="none" stroke="#000000" points="421.9093,-750.8504 439.1916,-777.5257 442.3163,-745.8953 421.9093,-750.8504"/>
</g>
<!-- 7 -->
<g id="node7" class="node">
<title>7</title>
<polygon fill="#f2f2f2" stroke="#000000" points="746.5498,-1023.5 746.5498,-1131.5 904.1416,-1131.5 904.1416,-1023.5 746.5498,-1023.5"/>
<text text-anchor="middle" x="825.3457" y="-1114.9" font-family="Times,serif" font-size="14.00" fill="#000000">ERC20Events</text>
<polyline fill="none" stroke="#000000" points="746.5498,-1106.7 904.1416,-1106.7 "/>
<text text-anchor="middle" x="825.3457" y="-1090.1" font-family="Times,serif" font-size="14.00" fill="#000000"> </text>
<polyline fill="none" stroke="#000000" points="746.5498,-1081.9 904.1416,-1081.9 "/>
<text text-anchor="start" x="754.5498" y="-1065.3" font-family="Times,serif" font-size="14.00" fill="#000000">Public:</text>
<text text-anchor="start" x="754.5498" y="-1048.5" font-family="Times,serif" font-size="14.00" fill="#000000"> &#160;&#160;&#160;&lt;&lt;event&gt;&gt; Approval()</text>
<text text-anchor="start" x="754.5498" y="-1031.7" font-family="Times,serif" font-size="14.00" fill="#000000"> &#160;&#160;&#160;&lt;&lt;event&gt;&gt; Transfer()</text>
</g>
<!-- 8 -->
<g id="node8" class="node">
<title>8</title>
<polygon fill="#f2f2f2" stroke="#000000" points="729.8408,-735.7 729.8408,-927.7 920.8506,-927.7 920.8506,-735.7 729.8408,-735.7"/>
<text text-anchor="middle" x="825.3457" y="-911.1" font-family="Times,serif" font-size="14.00" fill="#000000">&lt;&lt;Abstract&gt;&gt;</text>
<text text-anchor="middle" x="825.3457" y="-894.3" font-family="Times,serif" font-size="14.00" fill="#000000">ERC20</text>
<polyline fill="none" stroke="#000000" points="729.8408,-886.1 920.8506,-886.1 "/>
<text text-anchor="middle" x="825.3457" y="-869.5" font-family="Times,serif" font-size="14.00" fill="#000000"> </text>
<polyline fill="none" stroke="#000000" points="729.8408,-861.3 920.8506,-861.3 "/>
<text text-anchor="start" x="737.8408" y="-844.7" font-family="Times,serif" font-size="14.00" fill="#000000">Public:</text>
<text text-anchor="start" x="737.8408" y="-827.9" font-family="Times,serif" font-size="14.00" fill="#000000"> &#160;&#160;&#160;&lt;&lt;abstract&gt;&gt; totalSupply()</text>
<text text-anchor="start" x="737.8408" y="-811.1" font-family="Times,serif" font-size="14.00" fill="#000000"> &#160;&#160;&#160;&lt;&lt;abstract&gt;&gt; balanceOf()</text>
<text text-anchor="start" x="737.8408" y="-794.3" font-family="Times,serif" font-size="14.00" fill="#000000"> &#160;&#160;&#160;&lt;&lt;abstract&gt;&gt; allowance()</text>
<text text-anchor="start" x="737.8408" y="-777.5" font-family="Times,serif" font-size="14.00" fill="#000000"> &#160;&#160;&#160;&lt;&lt;abstract&gt;&gt; approve()</text>
<text text-anchor="start" x="737.8408" y="-760.7" font-family="Times,serif" font-size="14.00" fill="#000000"> &#160;&#160;&#160;&lt;&lt;abstract&gt;&gt; transfer()</text>
<text text-anchor="start" x="737.8408" y="-743.9" font-family="Times,serif" font-size="14.00" fill="#000000"> &#160;&#160;&#160;&lt;&lt;abstract&gt;&gt; transferFrom()</text>
</g>
<!-- 8&#45;&gt;7 -->
<g id="edge5" class="edge">
<title>8&#45;&gt;7</title>
<path fill="none" stroke="#000000" d="M825.3457,-927.7888C825.3457,-949.3377 825.3457,-972.0426 825.3457,-993.0755"/>
<polygon fill="none" stroke="#000000" points="814.8458,-993.346 825.3457,-1023.346 835.8458,-993.3461 814.8458,-993.346"/>
</g>
<!-- 9 -->
<g id="node9" class="node">
<title>9</title>
<polygon fill="#f2f2f2" stroke="#000000" points="482.2121,-397.5 482.2121,-639.9 852.4793,-639.9 852.4793,-397.5 482.2121,-397.5"/>
<text text-anchor="middle" x="667.3457" y="-623.3" font-family="Times,serif" font-size="14.00" fill="#000000">DSTokenBase</text>
<polyline fill="none" stroke="#000000" points="482.2121,-615.1 852.4793,-615.1 "/>
<text text-anchor="start" x="490.2121" y="-598.5" font-family="Times,serif" font-size="14.00" fill="#000000">Public:</text>
<text text-anchor="start" x="490.2121" y="-581.7" font-family="Times,serif" font-size="14.00" fill="#000000"> &#160;&#160;_supply: uint256</text>
<text text-anchor="start" x="490.2121" y="-564.9" font-family="Times,serif" font-size="14.00" fill="#000000"> &#160;&#160;_balances: mapping(address=&gt;uint256)</text>
<text text-anchor="start" x="490.2121" y="-548.1" font-family="Times,serif" font-size="14.00" fill="#000000"> &#160;&#160;_approvals: mapping(address=&gt;mapping(address=&gt;uint256))</text>
<polyline fill="none" stroke="#000000" points="482.2121,-539.9 852.4793,-539.9 "/>
<text text-anchor="start" x="490.2121" y="-523.3" font-family="Times,serif" font-size="14.00" fill="#000000">Public:</text>
<text text-anchor="start" x="490.2121" y="-506.5" font-family="Times,serif" font-size="14.00" fill="#000000"> &#160;&#160;&#160;constructor()</text>
<text text-anchor="start" x="490.2121" y="-489.7" font-family="Times,serif" font-size="14.00" fill="#000000"> &#160;&#160;&#160;totalSupply()</text>
<text text-anchor="start" x="490.2121" y="-472.9" font-family="Times,serif" font-size="14.00" fill="#000000"> &#160;&#160;&#160;balanceOf()</text>
<text text-anchor="start" x="490.2121" y="-456.1" font-family="Times,serif" font-size="14.00" fill="#000000"> &#160;&#160;&#160;allowance()</text>
<text text-anchor="start" x="490.2121" y="-439.3" font-family="Times,serif" font-size="14.00" fill="#000000"> &#160;&#160;&#160;transfer()</text>
<text text-anchor="start" x="490.2121" y="-422.5" font-family="Times,serif" font-size="14.00" fill="#000000"> &#160;&#160;&#160;transferFrom()</text>
<text text-anchor="start" x="490.2121" y="-405.7" font-family="Times,serif" font-size="14.00" fill="#000000"> &#160;&#160;&#160;approve()</text>
</g>
<!-- 9&#45;&gt;1 -->
<g id="edge7" class="edge">
<title>9&#45;&gt;1</title>
<path fill="none" stroke="#000000" d="M667.3457,-640.162C667.3457,-642.3234 667.3457,-644.4942 667.3457,-646.6727"/>
<polygon fill="none" stroke="#000000" points="656.8458,-646.8172 667.3457,-676.8172 677.8458,-646.8173 656.8458,-646.8172"/>
</g>
<!-- 9&#45;&gt;8 -->
<g id="edge6" class="edge">
<title>9&#45;&gt;8</title>
<path fill="none" stroke="#000000" d="M728.6588,-640.162C740.0059,-662.6408 751.8662,-686.1362 763.2368,-708.6614"/>
<polygon fill="none" stroke="#000000" points="753.9036,-713.4729 776.7961,-735.5225 772.6505,-704.0096 753.9036,-713.4729"/>
</g>
<!-- 10 -->
<g id="node10" class="node">
<title>10</title>
<polygon fill="#f2f2f2" stroke="#000000" points="454.9874,-.5 454.9874,-360.5 587.704,-360.5 587.704,-.5 454.9874,-.5"/>
<text text-anchor="middle" x="521.3457" y="-343.9" font-family="Times,serif" font-size="14.00" fill="#000000">DSToken</text>
<polyline fill="none" stroke="#000000" points="454.9874,-335.7 587.704,-335.7 "/>
<text text-anchor="start" x="462.9874" y="-319.1" font-family="Times,serif" font-size="14.00" fill="#000000">Public:</text>
<text text-anchor="start" x="462.9874" y="-302.3" font-family="Times,serif" font-size="14.00" fill="#000000"> &#160;&#160;symbol: bytes32</text>
<text text-anchor="start" x="462.9874" y="-285.5" font-family="Times,serif" font-size="14.00" fill="#000000"> &#160;&#160;decimals: uint256</text>
<text text-anchor="start" x="462.9874" y="-268.7" font-family="Times,serif" font-size="14.00" fill="#000000"> &#160;&#160;name: bytes32</text>
<polyline fill="none" stroke="#000000" points="454.9874,-260.5 587.704,-260.5 "/>
<text text-anchor="start" x="462.9874" y="-243.9" font-family="Times,serif" font-size="14.00" fill="#000000">Public:</text>
<text text-anchor="start" x="462.9874" y="-227.1" font-family="Times,serif" font-size="14.00" fill="#000000"> &#160;&#160;&#160;&lt;&lt;event&gt;&gt; Burn()</text>
<text text-anchor="start" x="462.9874" y="-210.3" font-family="Times,serif" font-size="14.00" fill="#000000"> &#160;&#160;&#160;&lt;&lt;event&gt;&gt; Mint()</text>
<text text-anchor="start" x="462.9874" y="-193.5" font-family="Times,serif" font-size="14.00" fill="#000000"> &#160;&#160;&#160;pull()</text>
<text text-anchor="start" x="462.9874" y="-176.7" font-family="Times,serif" font-size="14.00" fill="#000000"> &#160;&#160;&#160;approve()</text>
<text text-anchor="start" x="462.9874" y="-159.9" font-family="Times,serif" font-size="14.00" fill="#000000"> &#160;&#160;&#160;approve()</text>
<text text-anchor="start" x="462.9874" y="-143.1" font-family="Times,serif" font-size="14.00" fill="#000000"> &#160;&#160;&#160;transferFrom()</text>
<text text-anchor="start" x="462.9874" y="-126.3" font-family="Times,serif" font-size="14.00" fill="#000000"> &#160;&#160;&#160;push()</text>
<text text-anchor="start" x="462.9874" y="-109.5" font-family="Times,serif" font-size="14.00" fill="#000000"> &#160;&#160;&#160;constructor()</text>
<text text-anchor="start" x="462.9874" y="-92.7" font-family="Times,serif" font-size="14.00" fill="#000000"> &#160;&#160;&#160;move()</text>
<text text-anchor="start" x="462.9874" y="-75.9" font-family="Times,serif" font-size="14.00" fill="#000000"> &#160;&#160;&#160;mint()</text>
<text text-anchor="start" x="462.9874" y="-59.1" font-family="Times,serif" font-size="14.00" fill="#000000"> &#160;&#160;&#160;burn()</text>
<text text-anchor="start" x="462.9874" y="-42.3" font-family="Times,serif" font-size="14.00" fill="#000000"> &#160;&#160;&#160;mint()</text>
<text text-anchor="start" x="462.9874" y="-25.5" font-family="Times,serif" font-size="14.00" fill="#000000"> &#160;&#160;&#160;burn()</text>
<text text-anchor="start" x="462.9874" y="-8.7" font-family="Times,serif" font-size="14.00" fill="#000000"> &#160;&#160;&#160;setName()</text>
</g>
<!-- 10&#45;&gt;6 -->
<g id="edge9" class="edge">
<title>10&#45;&gt;6</title>
<path fill="none" stroke="#000000" d="M454.787,-335.7423C442.5509,-364.2821 430.0875,-393.3519 418.8036,-419.6706"/>
<polygon fill="none" stroke="#000000" points="409.0365,-415.8053 406.8654,-447.5155 428.3374,-424.0804 409.0365,-415.8053"/>
</g>
<!-- 10&#45;&gt;9 -->
<g id="edge8" class="edge">
<title>10&#45;&gt;9</title>
<path fill="none" stroke="#000000" d="M587.7239,-334.2611C592.8006,-346.0209 597.9204,-357.8806 602.984,-369.61"/>
<polygon fill="none" stroke="#000000" points="593.4887,-374.1073 615.0192,-397.4888 612.7689,-365.7841 593.4887,-374.1073"/>
</g>
</g>
</svg>
